<?xml version="1.0" encoding="utf-8"?>
<!-- Generator: Adobe Illustrator 16.0.3, SVG Export Plug-In . SVG Version: 6.00 Build 0)  -->
<!DOCTYPE svg PUBLIC "-//W3C//DTD SVG 1.1//EN" "http://www.w3.org/Graphics/SVG/1.1/DTD/svg11.dtd">
<svg version="1.1" id="Layer_1" xmlns="http://www.w3.org/2000/svg" xmlns:xlink="http://www.w3.org/1999/xlink" x="0px" y="0px"
	 width="205px" height="48px" viewBox="0 0 205 48" enable-background="new 0 0 205 48" xml:space="preserve">
<g>
	<path d="M14.095,29.367c1.296,1.032,3.024,1.704,4.849,1.704c2.112,0,3.384-0.96,3.384-2.376c0-1.2-0.696-2.112-2.232-2.304
		c-0.768-0.096-1.368-0.192-2.256-0.312c-2.952-0.408-4.536-2.329-4.536-4.801c0-2.928,2.04-4.992,5.568-4.992
		c2.112,0,3.984,0.744,5.544,1.776l-1.44,2.136c-1.248-0.792-2.712-1.32-4.225-1.32c-1.584,0-2.856,0.816-2.856,2.448
		c0,0.96,0.696,1.92,2.424,2.184c0.456,0.072,1.104,0.168,1.92,0.264c3.192,0.384,4.681,2.592,4.681,4.92
		c0,3.144-2.329,4.968-6,4.968c-2.521,0-4.729-0.768-6.529-2.352L14.095,29.367z"/>
	<path d="M34.855,16.43h2.592v17.089h-2.592V16.43z"/>
	<path d="M52.879,27.159l-3.744,6.36h-2.929l5.232-8.761l-4.896-8.329h2.928l3.408,5.928l3.408-5.928h2.928l-4.896,8.329
		l5.232,8.761h-2.928L52.879,27.159z"/>
	<path d="M81.27,16.43h6.192c1.344,0,2.52,0.168,3.84,1.2c1.032,0.792,1.848,2.232,1.848,4.08c0,2.424-1.848,5.137-5.353,5.137
		h-3.936v6.672H81.27V16.43z M83.862,24.398h3.84c1.92,0,2.856-1.417,2.856-2.76c0-1.152-0.456-1.848-1.104-2.28
		c-0.576-0.384-1.104-0.48-1.848-0.48h-3.744V24.398z"/>
	<path d="M102.87,19.358c0.816-1.488,2.664-3.072,5.353-3.072c2.688,0,4.536,1.584,5.352,3.072c0.552,1.008,0.744,1.512,0.744,5.616
		c0,4.104-0.192,4.608-0.744,5.617c-0.816,1.488-2.664,3.072-5.352,3.072c-2.688,0-4.537-1.584-5.353-3.072
		c-0.552-1.008-0.744-1.512-0.744-5.617C102.125,20.87,102.317,20.366,102.87,19.358z M105.582,29.823
		c0.528,0.672,1.417,1.248,2.641,1.248s2.112-0.576,2.64-1.248c0.672-0.864,0.864-1.344,0.864-4.849
		c0-3.504-0.192-3.984-0.864-4.848c-0.528-0.672-1.416-1.248-2.64-1.248s-2.112,0.576-2.641,1.248
		c-0.672,0.864-0.864,1.344-0.864,4.848C104.718,28.479,104.91,28.958,105.582,29.823z"/>
	<path d="M124.542,16.43h2.592v17.089h-2.592V16.43z"/>
	<path d="M137.933,16.43h2.448l7.729,12.145h0.048V16.43h2.592v17.089h-2.448l-7.729-12.145h-0.048v12.145h-2.592V16.43z"/>
	<path d="M164.453,18.734h-4.681V16.43h11.953v2.304h-4.681v14.785h-2.592V18.734z"/>
	<path d="M180.964,29.367c1.296,1.032,3.024,1.704,4.849,1.704c2.112,0,3.384-0.96,3.384-2.376c0-1.2-0.696-2.112-2.232-2.304
		c-0.768-0.096-1.368-0.192-2.256-0.312c-2.953-0.408-4.537-2.329-4.537-4.801c0-2.928,2.04-4.992,5.568-4.992
		c2.112,0,3.984,0.744,5.544,1.776l-1.44,2.136c-1.248-0.792-2.712-1.32-4.225-1.32c-1.584,0-2.856,0.816-2.856,2.448
		c0,0.96,0.696,1.92,2.424,2.184c0.456,0.072,1.104,0.168,1.92,0.264c3.192,0.384,4.681,2.592,4.681,4.92
		c0,3.144-2.329,4.968-6,4.968c-2.521,0-4.729-0.768-6.529-2.352L180.964,29.367z"/>
</g>
</svg>
